<svg id="visual" viewBox="0 0 960 540" width="960" height="540" xmlns="http://www.w3.org/2000/svg" xmlns:xlink="http://www.w3.org/1999/xlink" version="1.1"><rect x="0" y="0" width="960" height="540" fill="#002233"></rect><path d="M0 346L22.8 366.3C45.7 386.7 91.3 427.3 137 427.7C182.7 428 228.3 388 274 368.7C319.7 349.3 365.3 350.7 411.2 359C457 367.3 503 382.7 548.8 385.3C594.7 388 640.3 378 686 374.5C731.7 371 777.3 374 823 369.3C868.7 364.7 914.3 352.3 937.2 346.2L960 340L960 541L937.2 541C914.3 541 868.7 541 823 541C777.3 541 731.7 541 686 541C640.3 541 594.7 541 548.8 541C503 541 457 541 411.2 541C365.3 541 319.7 541 274 541C228.3 541 182.7 541 137 541C91.3 541 45.7 541 22.8 541L0 541Z" fill="#0066FF" stroke-linecap="round" stroke-linejoin="miter"></path></svg>