<svg id="visual" viewBox="0 0 960 540" width="960" height="540" xmlns="http://www.w3.org/2000/svg" xmlns:xlink="http://www.w3.org/1999/xlink" version="1.1"><rect x="0" y="0" width="960" height="540" fill="#222831"></rect><defs><linearGradient id="grad1_0" x1="43.8%" y1="0%" x2="100%" y2="100%"><stop offset="14.444444444444446%" stop-color="#222831" stop-opacity="1"></stop><stop offset="85.55555555555554%" stop-color="#222831" stop-opacity="1"></stop></linearGradient></defs><defs><linearGradient id="grad2_0" x1="0%" y1="0%" x2="56.3%" y2="100%"><stop offset="14.444444444444446%" stop-color="#222831" stop-opacity="1"></stop><stop offset="85.55555555555554%" stop-color="#222831" stop-opacity="1"></stop></linearGradient></defs><g transform="translate(960, 0)"><path d="M0 486C-48.9 447.2 -97.9 408.3 -162.3 391.7C-226.7 375.1 -306.5 380.8 -343.7 343.7C-380.8 306.5 -375.1 226.7 -391.7 162.3C-408.3 97.9 -447.2 48.9 -486 0L0 0Z" fill="#016A70"></path></g><g transform="translate(0, 540)"><path d="M0 -486C61 -477.7 122.1 -469.4 186 -449C249.9 -428.6 316.6 -396 342.2 -342.2C367.9 -288.5 352.4 -213.6 369.6 -153.1C386.7 -92.5 436.3 -46.3 486 0L0 0Z" fill="#016A70"></path></g></svg>