<svg id="visual" viewBox="0 0 960 540" width="960" height="540" xmlns="http://www.w3.org/2000/svg" xmlns:xlink="http://www.w3.org/1999/xlink" version="1.1"><rect x="0" y="0" width="960" height="540" fill="#15171b"></rect><defs><linearGradient id="grad1_0" x1="43.8%" y1="0%" x2="100%" y2="100%"><stop offset="14.444444444444446%" stop-color="#0e1012" stop-opacity="1"></stop><stop offset="85.55555555555554%" stop-color="#0e1012" stop-opacity="1"></stop></linearGradient></defs><defs><linearGradient id="grad1_1" x1="43.8%" y1="0%" x2="100%" y2="100%"><stop offset="14.444444444444446%" stop-color="#0e1012" stop-opacity="1"></stop><stop offset="85.55555555555554%" stop-color="#15171b" stop-opacity="1"></stop></linearGradient></defs><defs><linearGradient id="grad2_0" x1="0%" y1="0%" x2="56.3%" y2="100%"><stop offset="14.444444444444446%" stop-color="#0e1012" stop-opacity="1"></stop><stop offset="85.55555555555554%" stop-color="#0e1012" stop-opacity="1"></stop></linearGradient></defs><defs><linearGradient id="grad2_1" x1="0%" y1="0%" x2="56.3%" y2="100%"><stop offset="14.444444444444446%" stop-color="#15171b" stop-opacity="1"></stop><stop offset="85.55555555555554%" stop-color="#0e1012" stop-opacity="1"></stop></linearGradient></defs><g transform="translate(960, 0)"><path d="M0 486C-64.8 480.9 -129.6 475.9 -186 449C-242.4 422.1 -290.3 373.5 -322.4 322.4C-354.5 271.4 -370.8 217.9 -395.4 163.8C-420 109.6 -453 54.8 -486 0L0 0Z" fill="#121417"></path><path d="M0 243C-32.4 240.5 -64.8 237.9 -93 224.5C-121.2 211.1 -145.2 186.7 -161.2 161.2C-177.3 135.7 -185.4 109 -197.7 81.9C-210 54.8 -226.5 27.4 -243 0L0 0Z" fill="#0e1012"></path></g><g transform="translate(0, 540)"><path d="M0 -486C47.8 -441.4 95.6 -396.7 157.3 -379.7C218.9 -362.7 294.4 -373.3 343.7 -343.7C392.9 -314 415.8 -244.2 435.1 -180.2C454.5 -116.3 470.2 -58.1 486 0L0 0Z" fill="#121417"></path><path d="M0 -243C23.9 -220.7 47.8 -198.4 78.6 -189.9C109.5 -181.3 147.2 -186.6 171.8 -171.8C196.4 -157 207.9 -122.1 217.6 -90.1C227.2 -58.1 235.1 -29.1 243 0L0 0Z" fill="#0e1012"></path></g></svg>